<svg width="30" height="30" viewBox="0 0 30 30" xmlns="http://www.w3.org/2000/svg">
	<title>Youtube logo</title>
	<g fill-rule="evenodd">
		<path d="M0 14.754C0 6.606 6.615 0 14.775 0s14.776 6.606 14.776 14.754c0 8.149-6.615 14.754-14.776 14.754C6.615 29.508 0 22.903 0 14.754z" fill="#CE1312"/>
		<path d="M22.466 11.784s-.154-1.108-.626-1.596c-.599-.64-1.27-.644-1.577-.68-2.202-.164-5.505-.164-5.505-.164h-.007s-3.304 0-5.506.163c-.308.037-.978.04-1.577.681-.472.488-.625 1.596-.625 1.596s-.158 1.302-.158 2.603v1.22c0 1.302.158 2.603.158 2.603s.153 1.108.625 1.596c.599.641 1.385.621 1.735.688 1.26.124 5.351.162 5.351.162s3.307-.005 5.51-.168c.307-.038.977-.04 1.576-.682.472-.488.626-1.596.626-1.596s.157-1.301.157-2.603v-1.22c0-1.301-.157-2.603-.157-2.603z" fill="#FFF"/>
		<path fill="#CE1312" d="M13.13 17.086l-.001-4.519 4.252 2.267z"/>
	</g>
</svg>
